<?xml version="1.0" standalone="no"?>
<!DOCTYPE svg PUBLIC "-//W3C//DTD SVG 20010904//EN"
 "http://www.w3.org/TR/2001/REC-SVG-20010904/DTD/svg10.dtd">
<svg version="1.0" xmlns="http://www.w3.org/2000/svg"
 width="640.000000pt" height="464.000000pt" viewBox="0 0 640.000000 464.000000"
 preserveAspectRatio="xMidYMid meet">
<metadata>
Created by potrace 1.16, written by Peter Selinger 2001-2019
</metadata>
<g transform="translate(0.000000,464.000000) scale(0.100000,-0.100000)"
fill="#000000" stroke="none">
<path d="M0 2320 l0 -2320 3200 0 3200 0 0 2320 0 2320 -3200 0 -3200 0 0
-2320z m3662 2277 c31 -8 67 -22 80 -31 44 -28 206 -59 275 -53 55 5 66 4 83
-13 11 -11 23 -20 28 -20 4 0 12 -8 19 -19 8 -12 28 -20 65 -24 29 -3 72 -13
95 -23 36 -16 43 -24 48 -56 4 -21 11 -38 15 -38 5 0 12 -9 15 -20 4 -11 11
-18 16 -15 5 4 20 -6 34 -21 15 -16 30 -24 40 -20 18 6 85 -57 85 -80 0 -7 18
-30 40 -52 22 -21 40 -41 40 -44 0 -3 43 -48 95 -101 52 -53 95 -103 95 -112
0 -8 7 -15 15 -15 8 0 15 -7 15 -15 0 -8 5 -15 10 -15 6 0 29 -18 51 -39 21
-22 48 -43 59 -46 11 -4 20 -15 20 -26 0 -12 7 -19 20 -19 12 0 20 -7 20 -16
0 -9 9 -27 20 -41 21 -27 28 -103 10 -103 -5 0 -10 -18 -10 -40 0 -25 -5 -40
-12 -40 -8 -1 -6 -6 5 -14 9 -7 17 -19 17 -26 0 -7 -8 -19 -17 -26 -16 -12
-16 -13 -2 -14 9 0 21 -16 29 -39 7 -22 19 -42 26 -45 8 -3 14 -13 14 -22 0
-10 7 -25 15 -34 26 -28 21 -260 -6 -260 -5 0 -9 -8 -9 -19 0 -10 -7 -24 -15
-31 -17 -14 -21 -106 -5 -112 12 -4 -9 -78 -22 -78 -4 0 -19 -10 -32 -21 -19
-16 -24 -31 -23 -58 1 -35 4 -37 89 -80 l88 -45 0 -57 c0 -37 -4 -59 -12 -62
-10 -3 -10 -7 -1 -17 9 -10 8 -18 -7 -38 -11 -14 -20 -40 -20 -58 0 -39 -28
-104 -45 -104 -7 0 -17 -11 -23 -25 -15 -32 -15 -35 0 -35 17 0 58 -41 58 -57
0 -8 -7 -16 -15 -19 -8 -4 -15 -13 -15 -20 0 -8 -7 -17 -15 -20 -10 -4 -15
-20 -15 -44 0 -37 -3 -40 -54 -64 -30 -14 -59 -26 -64 -26 -5 0 -22 -10 -37
-22 -32 -25 -107 -52 -172 -63 -52 -8 -55 -24 -7 -50 25 -13 34 -24 31 -36 -3
-10 0 -20 7 -23 6 -3 -8 -3 -31 0 -34 5 -43 3 -43 -9 0 -9 -6 -18 -12 -21 -10
-5 -10 -7 0 -12 6 -3 12 -14 12 -25 0 -11 6 -22 14 -25 24 -9 27 -33 9 -67 -9
-18 -18 -27 -21 -19 -5 15 -73 6 -84 -11 -4 -6 -38 -12 -77 -13 -57 -1 -78 -6
-109 -27 -21 -13 -47 -26 -57 -28 -23 -5 -32 -29 -11 -29 9 0 16 -7 16 -15 0
-8 3 -15 8 -15 4 0 27 -18 50 -40 38 -35 40 -46 10 -41 -5 0 -8 -4 -8 -9 0 -6
5 -10 10 -10 6 0 10 -8 10 -19 0 -10 10 -22 23 -26 l22 -8 -22 -4 c-13 -2 -23
-8 -23 -13 0 -5 -25 -14 -56 -20 -60 -13 -65 -25 -19 -50 29 -16 45 -40 27
-40 -5 0 -19 -9 -32 -20 -13 -11 -33 -20 -45 -20 -13 0 -28 -6 -34 -14 -19
-22 -51 -27 -51 -8 0 15 -2 15 -10 2 -5 -8 -10 -47 -10 -87 0 -62 3 -74 20
-83 11 -6 20 -15 20 -21 0 -5 -11 -2 -25 8 -24 18 -24 21 -25 148 0 91 4 135
12 143 10 10 10 15 -2 22 -8 5 -21 10 -28 10 -17 0 -29 -33 -14 -38 9 -3 11
-39 10 -125 -1 -109 -2 -115 -8 -52 -4 39 -7 56 -8 38 -2 -24 -6 -31 -17 -27
-11 5 -13 2 -9 -10 3 -9 10 -16 15 -16 5 0 9 -5 9 -11 0 -5 -4 -7 -10 -4 -5 3
-10 1 -10 -4 0 -6 -7 -11 -15 -11 -9 0 -18 -6 -21 -13 -3 -10 -18 -13 -46 -10
-43 5 -42 7 -21 -44 7 -18 -22 -16 -37 2 -7 8 -24 15 -37 15 -25 0 -25 1 -22
83 3 66 1 82 -11 82 -12 0 -14 -15 -11 -81 3 -81 2 -81 -23 -86 -24 -5 -34 6
-114 126 -132 196 -144 218 -141 268 2 24 2 62 1 86 l-2 42 -44 0 -44 0 -31
80 c-33 88 -91 268 -111 345 -10 42 -10 60 3 110 17 66 10 95 -23 95 -11 0
-19 6 -18 13 2 6 -2 11 -9 10 -12 -3 -18 19 -30 112 -4 33 -8 53 -10 44 -5
-20 -78 -16 -100 6 -13 13 -13 18 -1 32 11 15 11 16 -7 9 -12 -4 -16 -4 -10 2
15 14 68 25 61 13 -7 -11 41 -47 50 -38 4 3 1 53 -6 110 l-13 104 -29 -14
c-23 -12 -27 -18 -17 -29 6 -7 9 -20 6 -28 -4 -10 2 -16 16 -18 15 -2 23 -11
24 -28 1 -14 0 -18 -3 -7 -7 21 -21 22 -41 1 -13 -12 -13 -18 -4 -24 10 -5 9
-9 -2 -13 -16 -6 -37 10 -37 30 0 7 6 10 14 7 7 -3 16 2 19 11 5 12 1 14 -16
11 -19 -3 -23 1 -22 23 0 14 5 30 10 34 6 6 6 10 -2 14 -7 2 -13 9 -13 14 0 6
5 7 10 4 6 -3 10 -1 10 5 0 6 -10 15 -22 19 -21 8 -21 10 -5 16 12 5 16 14 12
26 -4 13 -1 19 9 19 9 0 16 9 16 20 0 11 -4 20 -10 20 -5 0 -7 -8 -4 -17 3
-10 -3 -2 -13 17 -17 32 -17 38 -4 61 14 25 13 29 -12 63 -26 34 -25 50 1 24
9 -9 12 -6 12 15 0 14 7 30 16 35 13 7 10 14 -23 41 -21 18 -28 28 -16 22 27
-14 36 -14 28 -1 -4 6 7 8 30 4 28 -4 35 -3 29 7 -4 7 -6 38 -5 71 2 55 1 58
-21 58 -21 -1 -22 -2 -5 -14 20 -15 23 -56 5 -57 -10 0 -10 -2 0 -6 21 -8 13
-22 -10 -17 -13 3 -28 6 -35 6 -7 1 -14 7 -17 15 -4 9 -17 11 -41 8 -23 -3
-33 -1 -29 6 3 6 15 9 25 6 22 -6 67 28 47 36 -8 3 -6 6 6 6 14 1 17 7 14 26
-3 13 0 26 6 29 6 2 4 5 -5 5 -9 1 -22 7 -28 15 -10 12 -8 17 8 26 24 12 29
60 7 60 -22 0 -27 29 -7 40 30 15 32 46 5 60 -26 14 -23 30 5 30 11 0 17 7 16
20 -2 27 -13 36 -21 16 -13 -33 -19 -14 -20 64 0 64 3 77 13 68 9 -7 13 -7 13
1 0 6 5 11 11 11 5 0 7 -4 4 -10 -3 -5 -2 -10 4 -10 5 0 13 5 17 11 9 15 -16
30 -38 23 -19 -6 -24 17 -19 75 1 13 -4 28 -11 33 -9 5 -10 10 -2 16 6 4 11
14 11 22 0 8 4 23 8 33 6 13 3 16 -9 11 -9 -3 -16 -12 -16 -20 0 -8 -4 -14
-10 -14 -5 0 -10 -9 -10 -19 0 -30 -17 -34 -39 -9 -16 16 -21 18 -21 7 0 -9
11 -21 24 -29 30 -16 51 -80 26 -80 -5 0 -10 9 -10 20 0 11 -6 20 -14 20 -8 0
-17 6 -19 13 -3 6 -6 2 -6 -9 -1 -12 6 -25 15 -28 18 -7 11 -21 -9 -21 -7 0
-13 -12 -15 -26 -2 -20 2 -28 20 -32 12 -4 25 -1 29 5 4 6 15 8 25 3 12 -4 14
-9 7 -12 -9 -3 -9 -12 -3 -29 7 -17 7 -23 0 -19 -6 3 -10 -1 -10 -9 0 -9 3
-16 8 -16 14 0 11 -58 -3 -64 -8 -3 -12 -12 -9 -21 8 -20 -6 -19 -22 3 -13 16
-13 16 -14 -3 -1 -18 -2 -18 -10 3 -5 12 -14 22 -20 22 -14 0 -12 -19 4 -35
14 -15 10 -65 -5 -65 -5 0 -9 -9 -9 -20 0 -11 7 -20 16 -20 8 0 13 4 9 9 -3 5
0 13 6 16 6 5 10 0 9 -11 -3 -29 11 -65 23 -57 6 3 7 1 3 -5 -4 -7 -2 -12 3
-12 17 0 13 -37 -5 -44 -8 -3 -12 -2 -9 4 3 5 2 17 -3 26 -8 14 -10 10 -14
-18 -3 -26 0 -34 9 -31 8 3 13 -3 13 -15 0 -11 3 -29 6 -39 6 -16 5 -16 -10 2
-17 20 -17 19 -13 -7 2 -16 0 -28 -5 -28 -6 0 -7 -7 -4 -16 4 -10 -1 -22 -11
-30 -21 -16 -37 -18 -28 -4 3 6 1 10 -4 10 -6 0 -11 -16 -11 -36 0 -19 4 -33
8 -30 5 3 18 -2 30 -10 26 -18 30 -64 6 -64 -11 0 -14 6 -10 18 5 15 5 15 -8
-1 -14 -18 -15 -18 -25 0 -9 15 -10 11 -11 -21 0 -38 0 -39 18 -19 9 11 22 18
29 16 7 -2 22 1 35 8 13 6 20 8 16 4 -4 -4 0 -14 10 -21 15 -11 15 -13 -10
-19 -33 -8 -54 -30 -38 -40 5 -3 10 -15 10 -26 0 -25 -40 -27 -41 -1 0 11 -2
12 -6 4 -4 -10 -8 -10 -19 -1 -12 10 -14 4 -14 -36 0 -33 5 -52 17 -60 9 -7
13 -17 9 -24 -6 -9 -12 -7 -22 6 -12 16 -13 14 -14 -19 0 -30 3 -36 15 -31 9
3 22 18 30 34 11 19 20 26 31 22 14 -5 13 -9 -7 -25 -21 -17 -22 -18 -3 -9 16
8 25 7 32 -2 16 -19 25 -64 14 -71 -6 -4 -8 2 -5 14 3 11 0 20 -6 20 -6 0 -11
-3 -11 -8 0 -4 -22 -7 -48 -6 l-48 1 -13 -101 c-20 -163 -23 -194 -12 -171 8
17 10 14 10 -15 -1 -19 -3 -29 -6 -22 -9 23 -20 12 -26 -28 -5 -42 -30 -75
-56 -75 -13 0 -15 -11 -13 -55 7 -157 7 -159 -55 -345 -82 -244 -77 -235 -129
-235 -39 0 -44 -3 -44 -22 0 -13 0 -51 0 -86 0 -35 -7 -75 -14 -90 -21 -40
-181 -283 -205 -312 l-21 -25 1 90 c2 68 -1 90 -11 90 -10 0 -12 -21 -11 -86
l2 -85 -36 -11 c-36 -11 -37 -11 -80 35 -37 39 -46 44 -59 33 -11 -9 -16 -10
-16 -2 0 6 5 11 11 11 8 0 8 5 -1 15 -7 8 -19 15 -26 15 -18 0 -20 151 -2 180
15 23 -1 46 -26 37 -12 -5 -13 -18 -9 -63 4 -39 3 -55 -5 -50 -5 3 -13 0 -15
-6 -3 -8 -6 -6 -6 5 -1 23 -13 22 -29 -4 -12 -18 -11 -24 2 -37 14 -14 17 -14
36 3 20 18 20 18 20 -16 0 -36 1 -36 -95 -42 -19 -1 -33 -10 -40 -23 -19 -38
-35 -52 -65 -56 -41 -6 -37 8 7 29 22 11 39 26 41 38 3 18 2 18 -10 4 -14 -18
-45 -18 -91 0 -16 6 -45 11 -66 11 -34 0 -39 4 -66 51 -17 28 -29 57 -27 65 1
7 -4 27 -13 43 -19 37 -21 116 -2 105 9 -6 9 -4 1 7 -6 8 -11 31 -10 52 0 20
-2 37 -6 37 -16 0 -7 30 11 39 27 15 16 59 -16 67 -13 4 -29 2 -34 -3 -15 -15
-21 -62 -9 -81 9 -14 10 -13 4 7 -4 16 -3 21 5 17 18 -11 13 -34 -10 -46 -11
-7 -18 -17 -16 -24 6 -16 -97 -3 -118 14 -16 13 -71 16 -104 5 -29 -9 -26 2
10 36 20 19 42 29 63 29 31 1 62 17 65 35 0 6 8 10 17 10 22 0 34 26 22 48 -7
14 -7 32 2 60 10 34 9 41 -4 49 -8 5 -22 15 -30 23 -8 8 -19 15 -24 15 -5 0
-14 11 -20 25 -7 14 -19 28 -27 31 -8 4 -15 15 -15 26 0 12 -8 26 -17 33 -15
11 -15 15 -4 29 7 9 17 14 21 11 12 -7 -3 37 -20 61 -17 24 -55 46 -63 38 -3
-3 -12 -2 -19 2 -7 5 -23 7 -35 6 -18 -3 -22 2 -25 30 -2 26 -10 37 -40 53
-25 13 -38 27 -38 41 0 15 -10 24 -40 34 -22 7 -40 19 -40 27 0 7 -18 20 -40
29 -22 9 -40 20 -40 24 0 5 -18 11 -40 15 -22 4 -40 11 -40 15 0 5 -9 12 -21
15 -16 5 -20 13 -16 31 2 14 0 27 -4 30 -5 3 -21 30 -35 60 -14 30 -31 54 -39
54 -19 0 -27 28 -14 52 7 13 17 18 30 15 10 -3 19 -1 19 4 0 5 -6 9 -12 9 -7
0 -2 7 10 16 22 15 31 64 12 64 -17 0 -11 20 14 43 20 19 23 29 19 70 -4 38
-9 47 -24 47 -15 0 -19 7 -19 40 0 32 4 40 18 40 9 0 29 11 44 25 17 15 39 25
58 25 17 0 48 11 68 25 20 14 42 25 49 25 6 0 24 5 39 10 26 10 26 11 9 30
-10 11 -24 20 -32 20 -9 0 -13 13 -13 40 0 29 4 40 15 40 8 0 22 18 31 40 9
22 20 40 25 40 5 0 9 28 9 63 -1 60 -15 97 -37 97 -6 0 -16 14 -23 31 -7 17
-20 37 -28 45 -12 13 -13 29 -5 97 8 65 7 88 -3 109 -18 34 -17 38 1 38 8 0
15 9 15 20 0 11 4 20 9 20 4 0 18 27 30 60 21 58 41 79 41 43 0 -14 3 -14 12
-5 10 10 10 14 0 21 -10 6 -9 15 5 42 10 19 21 35 25 37 5 2 3 12 -2 22 -12
23 -4 47 21 61 15 7 19 21 19 59 0 49 0 49 40 60 24 6 40 17 40 25 0 12 16 15
80 15 65 0 80 3 80 15 0 8 18 22 40 31 33 13 40 21 40 44 0 23 5 29 31 34 17
3 41 3 53 0 15 -3 28 2 40 15 13 14 15 21 6 21 -10 0 -10 3 -1 14 15 17 82 31
133 27 52 -4 175 37 181 61 3 11 14 18 29 18 28 0 48 17 48 42 0 10 4 18 9 18
5 0 16 6 23 13 17 18 78 38 90 31 5 -3 23 7 39 22 22 21 32 25 38 16 6 -10 30
-5 106 23 53 19 108 35 120 35 13 0 36 7 52 15 87 46 170 69 248 70 44 1 91 5
105 9 150 43 514 56 632 23z m-392 -2946 c1 -3 11 -66 23 -138 l23 -133 -134
0 c-117 0 -133 2 -128 15 3 9 13 60 21 113 25 154 18 141 78 144 99 6 117 6
117 -1z m483 -615 c40 -44 48 -57 53 -81 5 -27 -5 -32 -24 -13 -7 7 -12 8 -12
2 0 -5 5 -15 12 -22 6 -6 13 -17 14 -24 9 -60 8 -62 -14 -74 -34 -17 -53 -37
-27 -29 18 6 19 6 2 -5 -14 -9 -22 -9 -33 0 -18 16 -18 31 0 24 7 -3 16 2 19
10 4 9 3 15 -1 15 -23 -4 -34 3 -28 16 4 10 -3 20 -19 27 -29 13 -32 33 -9 46
11 6 14 16 9 31 -5 16 -10 19 -19 12 -9 -7 -12 -4 -11 14 0 13 4 27 8 32 5 4
7 2 5 -6 -1 -7 3 -16 10 -18 6 -3 12 2 12 10 0 8 6 20 14 26 11 10 16 8 21 -8
3 -12 11 -21 16 -21 13 0 11 7 -8 30 -20 22 -39 26 -45 8 -3 -7 -7 -6 -11 5
-10 27 40 22 66 -7z m-1107 2 c4 -7 3 -8 -4 -4 -6 3 -16 -3 -22 -14 -9 -18 -8
-20 15 -20 14 0 25 6 25 13 1 7 6 5 14 -5 16 -22 27 -23 20 -4 -4 10 1 14 14
13 18 -1 19 -3 5 -23 -13 -20 -12 -23 4 -32 10 -6 14 -14 9 -19 -5 -4 -11 -2
-13 5 -3 7 -12 16 -21 21 -14 7 -17 4 -17 -15 0 -18 5 -24 23 -24 12 0 22 -4
22 -10 0 -5 -13 -10 -29 -10 -17 0 -33 -4 -36 -10 -3 -5 2 -10 12 -10 17 -1
17 -1 -1 -12 -18 -10 -17 -12 10 -24 16 -7 22 -13 14 -13 -8 1 -28 1 -44 0
-24 -1 -27 -3 -16 -16 16 -19 7 -41 -20 -48 -19 -5 -21 -2 -19 44 2 27 0 52
-4 56 -4 3 -7 -7 -7 -24 0 -50 -12 -93 -23 -86 -6 3 -7 1 -3 -5 4 -7 0 -22 -8
-34 -14 -19 -16 -20 -22 -5 -3 10 -1 24 6 32 10 12 10 15 -3 15 -9 0 -18 4
-22 10 -3 5 7 8 22 7 27 -2 28 0 25 36 -2 20 0 37 5 37 5 0 19 18 31 39 12 22
28 42 35 44 6 3 3 6 -8 6 -12 1 -26 -4 -32 -10 -23 -23 -34 2 -13 31 11 15 20
33 20 38 0 6 10 18 22 26 27 19 25 19 34 4z m657 -93 c32 -8 77 -25 100 -37
23 -13 47 -23 52 -23 25 0 77 -87 68 -112 -4 -11 -3 -14 5 -9 13 8 50 -59 39
-70 -11 -11 -34 20 -30 41 3 17 2 17 -6 -3 -6 -12 -8 -29 -5 -37 5 -12 -5 -15
-60 -15 -56 0 -66 3 -67 18 0 12 -3 10 -10 -7 -7 -19 -12 -22 -21 -13 -15 15
-48 16 -48 2 0 -5 -14 -10 -31 -10 -27 0 -30 2 -19 15 7 8 8 15 3 15 -5 0 -16
-9 -26 -20 -9 -11 -24 -20 -32 -20 -8 0 -15 -4 -15 -10 0 -5 -1 -13 -2 -17 -1
-5 11 -10 27 -13 15 -3 30 -12 32 -20 4 -12 3 -12 -5 -1 -6 9 -12 10 -16 3 -8
-13 -37 -4 -53 17 -14 18 -17 45 -4 37 4 -3 16 2 24 12 15 17 14 18 -21 14
-20 -3 -41 -7 -47 -11 -5 -4 -26 -4 -45 -1 l-35 5 0 104 0 104 -42 3 c-48 3
-42 18 -48 -121 -2 -33 -4 -68 -4 -77 -1 -14 -7 -16 -33 -11 -18 3 -39 10 -45
16 -9 7 -13 5 -13 -7 0 -9 -4 -16 -10 -16 -5 0 -11 26 -12 58 l-1 57 -6 -54
c-7 -65 -31 -83 -31 -24 0 47 38 112 98 165 83 74 262 108 395 73z m-520 -328
c7 -4 48 -5 92 -1 67 5 83 3 94 -10 13 -16 63 -23 59 -8 -2 4 8 18 21 31 18
18 30 22 57 18 27 -5 34 -2 34 10 0 18 12 10 16 -10 2 -7 6 -22 10 -34 4 -16
2 -23 -7 -23 -11 0 -11 -2 -1 -9 15 -9 -27 -45 -95 -80 -57 -29 -66 -27 -19 5
l38 26 -27 21 c-25 20 -38 22 -177 22 -116 0 -152 3 -156 13 -2 7 5 16 17 19
17 4 21 14 23 52 l1 46 4 -40 c3 -22 10 -43 16 -48z"/>
<path d="M3163 4265 c0 -14 4 -25 9 -25 12 0 1 -222 -13 -258 -7 -17 -14 -22
-28 -17 -21 6 -29 -7 -27 -45 1 -14 -3 -28 -9 -32 -5 -4 -12 -46 -14 -93 -2
-66 1 -91 13 -110 9 -13 16 -33 16 -44 0 -36 11 -53 26 -40 11 9 18 8 29 -1
12 -10 18 -10 29 -1 11 9 20 9 35 2 27 -15 31 -14 31 7 0 15 -6 18 -31 14 -23
-3 -30 -1 -24 7 4 7 13 10 21 7 20 -8 17 11 -3 23 -10 6 -13 11 -6 11 6 0 19
-7 27 -16 14 -13 16 -13 16 0 0 8 6 21 14 28 19 20 30 137 15 173 -6 17 -11
50 -10 75 0 27 -2 40 -7 32 -7 -9 -15 -10 -35 -3 -28 11 -34 37 -29 115 1 16
-3 35 -9 42 -11 14 -9 50 7 137 6 35 5 37 -18 37 -21 0 -25 -5 -25 -25z"/>
</g>
</svg>
